<?xml version="1.0" encoding="UTF-8"?>
<svg version="1.1" xmlns="http://www.w3.org/2000/svg" width="327" height="327">
<path d="M0 0 C107.91 0 215.82 0 327 0 C327 107.91 327 215.82 327 327 C219.09 327 111.18 327 0 327 C0 219.09 0 111.18 0 0 Z " fill="#FEFEFE" transform="translate(0,0)"/>
<path d="M0 0 C11.92646216 7.61228101 20.8662661 18.98245133 24.7421875 32.609375 C28.09588783 48.13746692 26.54958002 64.43218823 18 78 C9.26004526 90.64468737 -2.75976858 99.684562 -18 103 C-33.48538087 104.23254327 -48.20459619 102.19867544 -63.3125 99.0625 C-66.41911122 98.44192679 -69.52712387 97.82873456 -72.63528442 97.2159729 C-74.78362499 96.79201122 -76.93147225 96.36554238 -79.0788269 95.93661499 C-86.9702383 94.36815632 -94.87978158 92.94005083 -102.80859375 91.57421875 C-104.50397026 91.28001793 -104.50397026 91.28001793 -106.2335968 90.97987366 C-110.64343465 90.21518083 -115.05311864 89.45062502 -119.4671936 88.71072388 C-150.5056086 83.49521165 -150.5056086 83.49521165 -159 73 C-165.33085916 63.59449797 -167.59076048 55.4303838 -166 44 C-163.89923411 34.97403491 -158.58511927 28.0879399 -150.86328125 23.0546875 C-143.56245006 18.78741309 -135.47219961 17.25291299 -127.3125 15.375 C-125.75026958 15.0042077 -124.18841699 14.63181973 -122.62695312 14.2578125 C-120.31014699 13.70315666 -117.99315465 13.14958823 -115.67463684 12.60212708 C-109.63474114 11.17242335 -103.64336146 9.60313135 -97.65161133 7.98242188 C-91.99559437 6.4607389 -86.319784 5.01715843 -80.64578247 3.56427002 C-70.58045853 0.98523565 -60.52388292 -1.61355834 -50.52807617 -4.45288086 C-48.68735802 -4.97558897 -46.84371613 -5.48796689 -45 -6 C-44.32735107 -6.18691406 -43.65470215 -6.37382813 -42.96166992 -6.56640625 C-28.01908793 -10.54029107 -13.44848112 -7.02135817 0 0 Z " fill="#526343" transform="translate(229,114)"/>
<path d="M0 0 C5.28 0 10.56 0 16 0 C16 1.98 16 3.96 16 6 C16.99 6.33 17.98 6.66 19 7 C19.9154645 11.46204176 19.97847873 15.34545385 19.5625 19.875 C19.46066406 21.02742188 19.35882813 22.17984375 19.25390625 23.3671875 C19.17011719 24.23601562 19.08632812 25.10484375 19 26 C19.66 26.33 20.32 26.66 21 27 C12.42 27 3.84 27 -5 27 C-4.34 26.67 -3.68 26.34 -3 26 C-3.33 20.39 -3.66 14.78 -4 9 C-3.34 8.67 -2.68 8.34 -2 8 C-2 9.32 -2 10.64 -2 12 C-1.34 12 -0.68 12 0 12 C0.6814823 10.10820797 0.6814823 10.10820797 1 8 C0.34 7.34 -0.32 6.68 -1 6 C-0.67 5.67 -0.34 5.34 0 5 C0 3.35 0 1.7 0 0 Z " fill="#ABB4A4" transform="translate(87,150)"/>
<path d="M0 0 C3.75212276 2.01502889 5.63644095 3.45466142 8 7 C8.47364652 11.81540624 8.49199653 14.05114955 6.25 18.375 C2.85854852 22.33169339 1.32119623 22.85083268 -3.875 23.4375 C-7.12458092 23.3646122 -8.89939678 22.71798257 -11.4375 20.6875 C-15.08567033 16.86137014 -15.535593 13.41036443 -15.46875 8.296875 C-14.74029228 4.72743217 -12.95303522 3.1286912 -10.06640625 1.03515625 C-6.36722584 -0.81793034 -4.11499555 -0.6531739 0 0 Z " fill="#F3F4F2" transform="translate(231,152)"/>
<path d="M0 0 C5.5 3 5.5 3 7 6 C7.12148305 7.62165752 7.17543652 9.24884327 7.1875 10.875 C7.20167969 11.73867187 7.21585938 12.60234375 7.23046875 13.4921875 C6.98440667 16.16967655 6.41995121 17.73401515 5 20 C1.43108393 22.93910735 -1.58856882 23.47509714 -6.0703125 23.2890625 C-8.95761881 22.85655103 -10.76072509 21.84410875 -13 20 C-15.7083328 15.58819287 -15.82217421 11.0307293 -15 6 C-10.7564704 0.52808025 -6.83310376 -0.95080293 0 0 Z " fill="#F3F4F2" transform="translate(154,152)"/>
<path d="M0 0 C2.97 0 5.94 0 9 0 C9 1.32 9 2.64 9 4 C7.68 4 6.36 4 5 4 C5 5.65 5 7.3 5 9 C6.65 9 8.3 9 10 9 C10.226875 8.2575 10.45375 7.515 10.6875 6.75 C12.33245584 3.30342587 13.70163617 1.93599616 17 0 C21.89864833 -0.62205058 24.00145471 -0.49019496 28.4375 1.6875 C31.22067989 4.19915015 31.79570164 5.3226295 32 9 C29.75 9.25 29.75 9.25 27 9 C26.34 8.319375 25.68 7.63875 25 6.9375 C24.34 6.298125 23.68 5.65875 23 5 C19.60845705 5.16150205 18.41703243 5.58296757 16 8 C15.61919785 11.50337981 15.59754922 13.36278626 17.5 16.375 C17.995 16.91125 18.49 17.4475 19 18 C21.93443402 17.73343428 21.93443402 17.73343428 25 17 C25.66 16.01 26.32 15.02 27 14 C29.625 13.8125 29.625 13.8125 32 14 C31.16180346 17.42898584 30.55666761 19.50882269 27.875 21.875 C24.1150482 23.34628549 20.98361883 23.71769651 17 23 C13.37896089 20.95332572 12.2483487 19.61495869 10.6875 15.75 C10.3471875 14.38875 10.3471875 14.38875 10 13 C8.35 13 6.7 13 5 13 C5 14.98 5 16.96 5 19 C6.65 19 8.3 19 10 19 C10 20.32 10 21.64 10 23 C6.7 23 3.4 23 0 23 C0 15.41 0 7.82 0 0 Z " fill="#F1F2F0" transform="translate(183,152)"/>
<path d="M0 0 C1.98 0 3.96 0 6 0 C6.33 0.66 6.66 1.32 7 2 C7.33 1.34 7.66 0.68 8 0 C9.65 0 11.3 0 13 0 C13 7.59 13 15.18 13 23 C11.02 23 9.04 23 7 23 C6.67 21.68 6.34 20.36 6 19 C5.67 20.32 5.34 21.64 5 23 C3.35 23 1.7 23 0 23 C0 15.41 0 7.82 0 0 Z " fill="#E9EBE7" transform="translate(163,152)"/>
<path d="M0 0 C2.875 1.125 2.875 1.125 5 3 C6.3125 6.1875 6.3125 6.1875 7 9 C4.75 9.25 4.75 9.25 2 9 C1.34 8.319375 0.68 7.63875 0 6.9375 C-0.66 6.298125 -1.32 5.65875 -2 5 C-5.39154295 5.16150205 -6.58296757 5.58296757 -9 8 C-9.38080215 11.50337981 -9.40245078 13.36278626 -7.5 16.375 C-7.005 16.91125 -6.51 17.4475 -6 18 C-4.02 17.67 -2.04 17.34 0 17 C0.33 16.01 0.66 15.02 1 14 C2.65 14 4.3 14 6 14 C5.63870968 19.41935484 5.63870968 19.41935484 2.9375 21.875 C-0.79508825 23.30450188 -4.09617689 23.838712 -8 23 C-11.01784991 21.24392354 -13.41468217 19.17063565 -15 16 C-15.53118173 12.20584481 -15.85089348 8.53668822 -13.953125 5.109375 C-9.78723214 0.06129307 -6.3545417 -0.65862812 0 0 Z " fill="#F3F4F2" transform="translate(131,152)"/>
<path d="M0 0 C1.32 0 2.64 0 4 0 C4.33 0.66 4.66 1.32 5 2 C5 1.34 5 0.68 5 0 C6.32 0 7.64 0 9 0 C11.09350689 3.4019487 11.17942163 6.05272412 11 10 C10.01 10 9.02 10 8 10 C8 11.98 8 13.96 8 16 C3.1666528 16.08333357 -1.23692563 15.95261487 -6 15 C-6 12.36 -6 9.72 -6 7 C-4.35 6.67 -2.7 6.34 -1 6 C-1 6.99 -1 7.98 -1 9 C0.32 8.34 1.64 7.68 3 7 C-0.3 6.34 -3.6 5.68 -7 5 C-6.67 4.34 -6.34 3.68 -6 3 C-4.35 3 -2.7 3 -1 3 C-0.67 2.01 -0.34 1.02 0 0 Z " fill="#546544" transform="translate(93,160)"/>
<path d="M0 0 C2.875 0.9375 2.875 0.9375 4.875 3.9375 C7.95865871 4.1877157 7.95865871 4.1877157 10.875 3.9375 C11 7.3125 11 7.3125 10.875 10.9375 C10.215 11.5975 9.555 12.2575 8.875 12.9375 C8.875 11.9475 8.875 10.9575 8.875 9.9375 C7.225 9.9375 5.575 9.9375 3.875 9.9375 C3.545 11.2575 3.215 12.5775 2.875 13.9375 C0.895 14.2675 -1.085 14.5975 -3.125 14.9375 C-5.66141621 12.24255778 -7.02149521 10.57146685 -7.625 6.875 C-7.125 3.9375 -7.125 3.9375 -5.5 1.5 C-3.125 -0.0625 -3.125 -0.0625 0 0 Z " fill="#607052" transform="translate(128.125,156.0625)"/>
<path d="M0 0 C2.875 1 2.875 1 4.25 3.0625 C4.45625 3.701875 4.6625 4.34125 4.875 5 C6.855 4.67 8.835 4.34 10.875 4 C10.875 6.31 10.875 8.62 10.875 11 C9.51375 10.87625 9.51375 10.87625 8.125 10.75 C4.77444369 10.65313724 4.77444369 10.65313724 2.8125 13.0625 C2.173125 13.701875 1.53375 14.34125 0.875 15 C-2.30094416 15 -3.61578066 14.47410077 -5.9375 12.3125 C-7.50266945 9.26453845 -7.61866687 7.38514427 -7.125 4 C-4.92588477 0.70132715 -4.0025361 0 0 0 Z " fill="#5F6F51" transform="translate(205.125,156)"/>
<path d="M0 0 C5.28 0 10.56 0 16 0 C16 1.98 16 3.96 16 6 C16.99 6.33 17.98 6.66 19 7 C19 8.65 19 10.3 19 12 C18.01 12 17.02 12 16 12 C15.34 11.01 14.68 10.02 14 9 C13.01 9 12.02 9 11 9 C11 8.34 11 7.68 11 7 C11.99 7 12.98 7 14 7 C14 6.34 14 5.68 14 5 C12.35 5.33 10.7 5.66 9 6 C9.33 6.99 9.66 7.98 10 9 C8.35 9 6.7 9 5 9 C5 10.65 5 12.3 5 14 C3.35 13.67 1.7 13.34 0 13 C0.309375 11.824375 0.309375 11.824375 0.625 10.625 C0.74875 9.75875 0.8725 8.8925 1 8 C0.34 7.34 -0.32 6.68 -1 6 C-0.67 5.67 -0.34 5.34 0 5 C0 3.35 0 1.7 0 0 Z " fill="#7E8A72" transform="translate(87,150)"/>
<path d="M0 0 C2.97 0 5.94 0 9 0 C9 1.32 9 2.64 9 4 C7.68 4 6.36 4 5 4 C5 5.65 5 7.3 5 9 C6.32 9 7.64 9 9 9 C9 10.32 9 11.64 9 13 C7.68 13 6.36 13 5 13 C5 14.98 5 16.96 5 19 C6.65 19 8.3 19 10 19 C10 20.32 10 21.64 10 23 C6.7 23 3.4 23 0 23 C0 15.41 0 7.82 0 0 Z " fill="#F9FAF9" transform="translate(183,152)"/>
<path d="M0 0 C4.35653019 1.39038198 4.35653019 1.39038198 5.9375 3.9375 C6.4375 6.8125 6.4375 6.8125 5.9375 9.9375 C3.75 12.875 3.75 12.875 0.9375 14.9375 C-1.97438084 14.9375 -3.42766749 14.33153397 -5.875 12.8125 C-7.79200563 9.78564901 -7.49043633 7.4221244 -7.0625 3.9375 C-4.8988567 0.608818 -4.00217367 -0.08167701 0 0 Z " fill="#596A4A" transform="translate(228.0625,156.0625)"/>
<path d="M0 0 C2.48038907 3.7205836 2.46337203 5.59796571 2 10 C0.375 12.5 0.375 12.5 -2 14 C-5.0625 14.0625 -5.0625 14.0625 -8 13 C-10.51029235 10.16579896 -11.01329687 8.66484335 -10.9375 4.875 C-10 2 -10 2 -8.3125 0.0625 C-5.13778084 -1.39615475 -3.30121799 -1.00471852 0 0 Z " fill="#5A6A4B" transform="translate(154,157)"/>
<path d="M0 0 C1.32 0 2.64 0 4 0 C4 7.59 4 15.18 4 23 C2.35 23 0.7 23 -1 23 C-1 22.01 -1 21.02 -1 20 C-0.34 19.67 0.32 19.34 1 19 C0.83628906 18.15179688 0.67257813 17.30359375 0.50390625 16.4296875 C-0.00948445 12.9354469 -0.09850739 9.65372426 -0.0625 6.125 C-0.05347656 4.97257813 -0.04445312 3.82015625 -0.03515625 2.6328125 C-0.02355469 1.76398438 -0.01195312 0.89515625 0 0 Z " fill="#FCFCFB" transform="translate(172,152)"/>
<path d="M0 0 C5.2113204 6.94842721 4.12423659 14.59332427 4 23 C2.68 23 1.36 23 0 23 C0 15.41 0 7.82 0 0 Z " fill="#FBFCFB" transform="translate(163,152)"/>
<path d="M0 0 C0 0.66 0 1.32 0 2 C-0.99 2 -1.98 2 -3 2 C-3 2.66 -3 3.32 -3 4 C-1.68 3.67 -0.36 3.34 1 3 C1.99 4.32 2.98 5.64 4 7 C4.66 6.01 5.32 5.02 6 4 C5.67 9.61 5.34 15.22 5 21 C4.34 20.67 3.68 20.34 3 20 C3.33 18.68 3.66 17.36 4 16 C3.01 16 2.02 16 1 16 C0.67 16.99 0.34 17.98 0 19 C0 17.68 0 16.36 0 15 C0.99 15 1.98 15 3 15 C2.55296014 10.52116304 2.55296014 10.52116304 0 7 C0.33 6.34 0.66 5.68 1 5 C-0.32 5 -1.64 5 -3 5 C-2.67 5.99 -2.34 6.98 -2 8 C-2.99 7.67 -3.98 7.34 -5 7 C-4.67 6.34 -4.34 5.68 -4 5 C-5.32 5 -6.64 5 -8 5 C-7.67 5.99 -7.34 6.98 -7 8 C-7.66 8 -8.32 8 -9 8 C-9 6.68 -9 5.36 -9 4 C-7.68 3.67 -6.36 3.34 -5 3 C-5 2.34 -5 1.68 -5 1 C-3 0 -3 0 0 0 Z " fill="#BEC5B8" transform="translate(101,155)"/>
<path d="M0 0 C2 3 2 3 2 7 C4.64 7 7.28 7 10 7 C10 7.99 10 8.98 10 10 C5.1666528 10.08333357 0.76307437 9.95261487 -4 9 C-4 6.36 -4 3.72 -4 1 C-2.68 0.67 -1.36 0.34 0 0 Z " fill="#768369" transform="translate(91,166)"/>
<path d="M0 0 C1.32 0 2.64 0 4 0 C4.33 0.66 4.66 1.32 5 2 C5 1.34 5 0.68 5 0 C6.32 0 7.64 0 9 0 C8.67 1.32 8.34 2.64 8 4 C6.68 4 5.36 4 4 4 C3.67 4.99 3.34 5.98 3 7 C-0.3 6.34 -3.6 5.68 -7 5 C-6.67 4.34 -6.34 3.68 -6 3 C-4.35 3 -2.7 3 -1 3 C-0.67 2.01 -0.34 1.02 0 0 Z " fill="#68775A" transform="translate(93,160)"/>
<path d="M0 0 C5.28 0 10.56 0 16 0 C16 1.65 16 3.3 16 5 C15.67 3.68 15.34 2.36 15 1 C10.38 1 5.76 1 1 1 C1 1.99 1 2.98 1 4 C1.99 3.34 2.98 2.68 4 2 C6.6875 1.875 6.6875 1.875 9 2 C9 2.66 9 3.32 9 4 C7.02 4.33 5.04 4.66 3 5 C2.67 5.99 2.34 6.98 2 8 C1.01 7.34 0.02 6.68 -1 6 C-0.67 5.67 -0.34 5.34 0 5 C0 3.35 0 1.7 0 0 Z " fill="#B8BFB1" transform="translate(87,150)"/>
<path d="M0 0 C0.33 0 0.66 0 1 0 C1.66 6.6 2.32 13.2 3 20 C2.01 20 1.02 20 0 20 C-0.33 20.99 -0.66 21.98 -1 23 C-1.33 21.02 -1.66 19.04 -2 17 C-1.34 17 -0.68 17 0 17 C-0.08378906 16.27554688 -0.16757813 15.55109375 -0.25390625 14.8046875 C-0.79527805 9.6650818 -1.23721798 5.08634058 0 0 Z " fill="#D9DDD6" transform="translate(171,152)"/>
<path d="M0 0 C1.32 0 2.64 0 4 0 C4 1.32 4 2.64 4 4 C3.34 4 2.68 4 2 4 C2 5.65 2 7.3 2 9 C0.35 8.67 -1.3 8.34 -3 8 C-2.67 6.35 -2.34 4.7 -2 3 C-1.34 3 -0.68 3 0 3 C0 2.01 0 1.02 0 0 Z " fill="#8E9984" transform="translate(90,155)"/>
<path d="M0 0 C4.62 0 9.24 0 14 0 C13.67 0.99 13.34 1.98 13 3 C13 2.34 13 1.68 13 1 C11.3954444 1.14148989 9.79136233 1.28835686 8.1875 1.4375 C6.84751953 1.55931641 6.84751953 1.55931641 5.48046875 1.68359375 C2.87256441 1.93489767 2.87256441 1.93489767 0 3 C0 2.01 0 1.02 0 0 Z " fill="#637254" transform="translate(88,151)"/>
<path d="M0 0 C1.98 0.495 1.98 0.495 4 1 C3.34 2.65 2.68 4.3 2 6 C1.01 5.67 0.02 5.34 -1 5 C-0.67 3.35 -0.34 1.7 0 0 Z " fill="#6D7B5F" transform="translate(85,157)"/>
</svg>
